#define max_width 15
#define max_height 15
static unsigned char max_bits[] = {
   0x00, 0x00, 0xf8, 0x1f, 0xfc, 0x1f, 0x0e, 0x18, 0x07, 0x18, 0xfe, 0x19,
   0xfc, 0x19, 0x80, 0x19, 0x80, 0x19, 0x80, 0x19, 0x80, 0x1d, 0x80, 0x0f,
   0x00, 0x07, 0x00, 0x02, 0x00, 0x00 };
