<?xml version="1.0" encoding="UTF-8" standalone="no"?>
<svg
   xmlns:dc="http://purl.org/dc/elements/1.1/"
   xmlns:cc="http://creativecommons.org/ns#"
   xmlns:rdf="http://www.w3.org/1999/02/22-rdf-syntax-ns#"
   xmlns:svg="http://www.w3.org/2000/svg"
   xmlns="http://www.w3.org/2000/svg"
   xmlns:sodipodi="http://sodipodi.sourceforge.net/DTD/sodipodi-0.dtd"
   xmlns:inkscape="http://www.inkscape.org/namespaces/inkscape"
   width="96"
   height="96"
   version="1"
   id="svg22"
   sodipodi:docname="fox.svg"
   inkscape:version="0.92.4 (5da689c313, 2019-01-14)">
  <metadata
     id="metadata28">
    <rdf:RDF>
      <cc:Work
         rdf:about="">
        <dc:format>image/svg+xml</dc:format>
        <dc:type
           rdf:resource="http://purl.org/dc/dcmitype/StillImage" />
        <dc:title></dc:title>
      </cc:Work>
    </rdf:RDF>
  </metadata>
  <defs
     id="defs26" />
  <sodipodi:namedview
     pagecolor="#ffffff"
     bordercolor="#666666"
     borderopacity="1"
     objecttolerance="10"
     gridtolerance="10"
     guidetolerance="10"
     inkscape:pageopacity="0"
     inkscape:pageshadow="2"
     inkscape:window-width="1366"
     inkscape:window-height="719"
     id="namedview24"
     showgrid="false"
     inkscape:zoom="3.9395752"
     inkscape:cx="28.05547"
     inkscape:cy="31.809624"
     inkscape:window-x="0"
     inkscape:window-y="0"
     inkscape:window-maximized="1"
     inkscape:current-layer="svg22" />
  <path
     style="opacity:0.2;stroke-width:1.62224996"
     d="m 76.493941,7.3326563 c -0.02307,0 -0.04313,0.018886 -0.07079,0.043679 -0.930042,1.0901697 -2.371623,6.6116547 -2.870304,7.9369347 -0.049,-0.0658 -0.09343,-0.117161 -0.141588,-0.180952 4.621193,6.967476 7.323738,15.242228 7.323738,24.141492 0,20.56009 -14.323908,37.836678 -33.812734,43.066574 -3.363064,1.059646 -6.940183,1.659766 -10.670253,1.659766 -0.307427,0 -0.608359,-0.02971 -0.91386,-0.03743 -0.246745,0.0037 -0.485983,0.03743 -0.733658,0.03743 -5.506619,0 -21.800501,-21.268992 -32.5569795,-33.48236 0.054572,1.160898 0.1373601,2.312505 0.2767303,3.450567 0.01288,0.107732 0.018717,0.216795 0.032192,0.324468 0.093395,0.717513 0.2066613,1.427358 0.3346525,2.133986 0.00419,0.02301 0.00866,0.04562 0.01288,0.06862 0.2457404,1.344534 0.2165333,2.672507 0.5783945,3.974704 0.00847,0.03068 0.010771,0.06305 0.019308,0.0936 0.036413,0.130001 0.065466,0.263535 0.1029702,0.393103 0.00576,0.01693 0.013511,0.03301 0.019308,0.04994 5.4644398,18.790713 23.231995,32.577585 44.360697,32.577585 25.477175,0 46.130507,-20.024665 46.130507,-44.72634 0,-15.654218 -7.231606,-23.699036 -14.390043,-34.686625 0,-0.0067 0.0039,-0.01195 -0.01944,-0.01872 C 78.450674,12.622892 77.535714,9.665621 76.796286,8.000306 76.680965,7.6331923 76.543391,7.3326553 76.493801,7.3326553 Z"
     id="path2"
     inkscape:connector-curvature="0" />
  <path
     style="fill:#254c8c;stroke-width:1.62224996"
     d="M 68.935234,10.16394 C 67.430983,9.372908 66.763887,6.4217062 65.16345,5.7937567 59.804619,3.6911694 53.9391,2.5343093 47.78465,2.5343093 c -13.901922,0 -26.329614,5.9027177 -34.773294,15.2747697 -1.102837,34.842165 39.345615,73.152336 56.778863,60.87503 9.888477,-6.963925 2.517096,-46.092565 -0.854985,-68.520169 z"
     id="path4"
     inkscape:connector-curvature="0" />
  <path
     style="opacity:0.1;fill:#ffffff;stroke-width:1.62224996"
     d="m 47.78465,2.5343093 c -13.901922,0 -26.32796,5.9027917 -34.771642,15.2748437 -0.01674,0.528855 0.0041,1.060602 0.0064,1.59113 8.443587,-9.368197 20.866589,-15.2686048 34.765226,-15.2686048 6.380181,0 12.449301,1.2428129 17.965026,3.4942461 1.39387,0.5689557 1.862904,3.4399327 3.182414,4.1338167 1.993827,13.260943 5.842021,31.16383 6.081659,46.389227 C 75.037359,42.59048 70.996471,23.895696 68.93209,10.165492 67.61258,9.471608 67.143546,6.5975104 65.749677,6.0285558 60.233951,3.7771222 54.164831,2.5343093 47.78465,2.5343093 Z"
     id="path6"
     inkscape:connector-curvature="0" />
  <path
     style="fill:#5094ff;stroke-width:1.62224996"
     d="m 76.493941,5.7352868 c -0.02307,0 -0.04313,0.018886 -0.07079,0.043679 -0.930042,1.0901686 -2.535806,6.6116552 -3.034486,7.9369332 -0.049,-0.0658 -0.09343,-0.117159 -0.141587,-0.180951 4.621192,6.967476 7.158416,15.242228 7.158416,24.14149 0,20.560092 -13.994405,37.196983 -33.483231,42.426878 -3.363064,1.059648 -6.940183,1.659767 -10.670253,1.659767 -0.307427,0 -0.608359,-0.02971 -0.91386,-0.03745 -0.246745,0.0039 -0.485983,0.03745 -0.733658,0.03745 -5.506619,0 -21.800501,-20.629295 -32.5569795,-32.842662 0.054572,1.160897 0.1373601,2.312505 0.2767303,3.450566 0.01288,0.107731 0.018717,0.216796 0.032192,0.324468 0.093395,0.717512 0.2066613,1.427358 0.3346525,2.133985 0.00419,0.02301 0.00866,0.04563 0.01288,0.06862 0.2457404,1.344533 0.2165333,2.672506 0.5783945,3.974704 0.00847,0.03068 0.010771,0.06306 0.019308,0.0936 0.036413,0.129986 0.065466,0.263534 0.1029702,0.393103 0.00576,0.01693 0.013511,0.033 0.019308,0.04994 5.4644403,18.790716 23.231995,32.577587 44.360697,32.577587 25.477175,0 46.130507,-20.024667 46.130507,-44.72634 0,-15.654219 -7.231606,-23.699037 -14.390043,-34.686624 0,-0.0067 0.0039,-0.01195 -0.01944,-0.01872 C 78.450674,11.025526 77.535714,8.068255 76.796286,6.4029396 76.680965,6.0358258 76.543391,5.7352888 76.493801,5.7352888 Z"
     id="path8"
     inkscape:connector-curvature="0" />
  <path
     style="opacity:0.2;stroke-width:1.62224996"
     d="m 63.995972,0.9369404 -0.553464,0.6614098 c -0.09457,0.1138292 -0.186557,0.2294689 -0.283168,0.349424 -2.134458,2.7449897 -2.688835,5.8475732 -3.96434,9.1786348 -0.486216,1.27801 -1.000426,3.207253 -1.287123,4.810827 -0.287394,1.607981 -0.312605,3.9041 -0.04505,5.310004 0.707182,3.724274 1.667693,7.232413 4.041566,10.201949 0.667868,0.705068 1.297024,1.429276 1.962865,2.152706 0.576747,0.626628 1.166143,1.248547 1.699004,1.865677 1.38657,1.60584 2.58224,3.146015 3.192065,4.423965 1.532687,3.214101 2.181675,6.072147 2.181675,9.627891 0,1.0718 -0.05989,2.176029 -0.154454,2.832837 -0.01155,0.05156 -0.03342,0.09829 -0.04504,0.149753 v 0.0062 c -0.06291,1.005552 -0.185718,1.993722 -0.337869,2.973229 0.151951,-0.979471 0.274974,-1.967992 0.337869,-2.973229 -2.365824,10.456481 -10.026388,18.656779 -20.76775,18.712941 -6.834293,0.02492 -16.027914,-2.876963 -17.266761,-9.72149 3.291928,0.486065 5.757595,0.315673 8.108877,0.299506 2.172797,-0.01501 4.907895,-0.469686 7.439574,-1.772078 3.772091,-1.952797 5.641565,-1.675886 6.673737,-1.559933 1.520924,0.170856 1.70749,0.171284 2.040089,-0.0312 0.705337,-0.429105 0.909542,-0.600098 0.501979,-1.416418 -0.514586,-1.030614 -2.321852,-2.469827 -3.835628,-3.057465 -1.267894,-0.492237 -1.955929,-0.616838 -3.475234,-0.617732 -1.54722,-8.49e-4 -2.860961,0.390684 -5.650472,1.210506 -2.784667,0.818513 -4.98204,0.939597 -6.699479,0.474219 -7.142857,-1.657549 -12.094146,-8.128479 -8.61729,-12.622961 2.091096,-0.09348 7.003729,2.230523 8.327688,3.107382 1.266744,-1.206964 -0.826822,-4.024843 -1.267816,-5.721828 0,-2.118204 4.452777,-2.708574 6.281162,-3.506725 1.204468,-0.524103 2.376926,-1.061431 2.606426,-1.191788 0.498671,-0.283437 1.46204,-1.18639 1.853457,-1.740881 0.59716,-0.846495 0.988024,-2.417785 0.746532,-2.98259 -0.303077,-0.70983 -2.33859,-1.153458 -7.272247,-1.578649 -1.862059,-0.160568 -3.137138,-1.622391 -4.118796,-3.300814 -1.719757,-3.855432 3.380938,-9.439016 5.560374,-11.381255 -3.466478,-1.834408 -8.921257,3.299769 -10.9856,5.17897 -0.661278,0.634465 -0.459778,0.623499 -2.464841,0.112311 -0.133775,-0.03421 -0.269798,-0.06184 -0.411881,-0.09359 -0.05074,-0.01114 -0.103715,-0.02671 -0.154454,-0.03745 -0.09226,-0.02013 -0.188606,-0.0376 -0.283167,-0.05617 -0.06689,-0.01343 -0.136744,-0.0247 -0.20594,-0.03745 -0.07842,-0.01343 -0.15279,-0.03003 -0.231682,-0.04367 -0.08303,-0.01343 -0.167489,-0.03029 -0.250988,-0.04368 -0.05997,-0.009 -0.120236,-0.01534 -0.180198,-0.02497 -0.530961,-0.08118 -1.082442,-0.149578 -1.641082,-0.19967 -0.610999,-0.05457 -1.22299,-0.09223 -1.814845,-0.10608 -0.177602,-0.0044 -0.355193,0 -0.52772,0 -0.186828,-3.8e-4 -0.368502,-0.0046 -0.547029,0 -0.03459,8.73e-4 -0.06836,0.0039 -0.102963,0.0062 -0.149925,0.0044 -0.300361,0.01195 -0.444058,0.01872 -0.02307,0.0011 -0.03947,0.0039 -0.05792,0.0062 -0.15915,0.009 -0.308621,0.01723 -0.45693,0.0312 -0.02307,0.0012 -0.02705,0.0039 -0.03862,0.0062 -0.152231,0.01343 -0.292332,0.03112 -0.431187,0.04993 h -0.0065 c -0.06228,0.009 -0.126656,0.01485 -0.18663,0.02497 -0.660821,-0.0023 -1.265546,0.180645 -1.782669,0.411821 C 16.966639,16.471323 16.543286,10.171793 15.194661,7.3262134 12.040256,8.929004 9.8814129,18.081992 9.344684,20.766576 c -0.2052807,1.067552 -0.4429047,3.141202 -0.4440576,3.874872 -2.107e-4,0.105595 -0.028025,0.148618 -0.032177,0.224629 -4.5575714,6.93487 -7.2143278,15.159078 -7.2143278,23.991737 0,4.197545 0.6353875,8.246696 1.750488,12.098825 4.345233,12.783479 16.3913054,22.150895 30.8201734,22.962184 0.0021,2.85e-4 0.0044,-3.09e-4 0.0065,0 0.120841,0.01877 0.262209,0.08111 0.373278,0.08111 0.240089,0 0.472373,-0.03204 0.711136,-0.03745 0.0033,8.5e-5 0.0065,-8.3e-5 0.0097,0 0.309946,0.0079 0.614651,0.03745 0.926663,0.03745 1.519471,0 3.005578,-0.127704 4.472754,-0.311986 0.469948,-0.05904 0.939183,-0.122479 1.402963,-0.19967 0.771089,-0.128282 1.52882,-0.287883 2.281428,-0.464861 0.880995,-0.207171 1.750192,-0.440049 2.603206,-0.71133 19.442057,-5.259525 33.722636,-22.51064 33.722636,-43.038493 0,-8.899264 -2.702547,-17.174016 -7.323732,-24.141492 C 69.863507,10.397056 66.45039,6.8760971 64.131142,1.5918977 Z M 70.23852,56.373766 c -0.124722,0.67757 -0.265223,1.349577 -0.431185,2.012311 0.165592,-0.66244 0.306706,-1.335168 0.431185,-2.012311 z m -0.698266,3.023146 c -0.180936,0.635027 -0.387093,1.258918 -0.604946,1.878157 0.217412,-0.619282 0.42436,-1.243189 0.604946,-1.878157 z m -0.933163,2.817235 c -0.285301,0.738289 -0.600039,1.462109 -0.936383,2.174544 0.335989,-0.713211 0.651407,-1.435563 0.936383,-2.174544 z m -1.493062,3.282096 c -0.304001,0.585683 -0.614743,1.166172 -0.952472,1.731523 0.336833,-0.565242 0.649253,-1.14605 0.952472,-1.731523 z m -1.689351,2.885871 c -0.261264,0.399126 -0.526507,0.795 -0.804453,1.182428 0.277362,-0.387591 0.543739,-0.78317 0.804453,-1.182428 z m -1.673261,2.346136 c -0.267491,0.340801 -0.546507,0.671102 -0.826976,1.001476 0.279993,-0.330653 0.559944,-0.660412 0.826976,-1.001476 z m -1.901724,2.233821 c -0.108148,0.115616 -0.224882,0.222813 -0.334653,0.336945 0.109505,-0.114164 0.226764,-0.221309 0.334653,-0.336945 z M 9.6922298,74.022824 c 1.3804312,1.965048 2.9117332,3.817349 4.5885942,5.540876 -1.675328,-1.722122 -3.209193,-3.577648 -4.5885942,-5.540876 z m 48.7465852,2.109028 c -0.125259,0.101915 -0.243288,0.211777 -0.370046,0.311986 0.126776,-0.100466 0.244778,-0.209829 0.370046,-0.311986 z m -2.014348,1.519373 c -0.182862,0.12781 -0.364724,0.256213 -0.550246,0.380622 0.185278,-0.124493 0.367628,-0.252715 0.550246,-0.380622 z m -2.384396,1.531851 c -0.08859,0.05172 -0.177971,0.101903 -0.267077,0.152868 0.0889,-0.05094 0.178692,-0.101176 0.267077,-0.152868 z"
     id="path10"
     inkscape:connector-curvature="0" />
  <path
     style="fill:#9065ff;stroke-width:1.62224996"
     d="m 15.194683,5.729048 c -3.154404,1.6027901 -5.3132476,10.755777 -5.8499761,13.440364 -0.2052808,1.067551 -0.4429047,3.141201 -0.4440576,3.87487 -2.106e-4,0.105595 -0.02804,0.148619 -0.032193,0.224627 -4.5575707,6.934872 -7.214313,15.15908 -7.214313,23.99174 0,4.197545 0.6353874,8.246693 1.750488,12.098824 4.547805,13.379437 17.5248347,23.0433 32.8473917,23.0433 18.395647,0 33.392635,-13.929574 34.488476,-31.498126 -2.364255,10.459307 -10.024344,18.662999 -20.76774,18.719172 -6.834294,0.02491 -16.027912,-2.876965 -17.26676,-9.721491 3.291928,0.486065 5.757598,0.315674 8.10888,0.299508 2.172794,-0.01502 4.907893,-0.469687 7.43957,-1.772081 3.772092,-1.952796 5.641565,-1.675886 6.673738,-1.559933 1.520925,0.170855 1.707488,0.171175 2.040088,-0.03131 0.705335,-0.429104 0.909542,-0.600097 0.50198,-1.416417 -0.514586,-1.030612 -2.321852,-2.469829 -3.835627,-3.057467 -1.267895,-0.492235 -1.95593,-0.616835 -3.475236,-0.61773 -1.547219,-8.5e-4 -2.860961,0.390684 -5.650472,1.210505 -2.784668,0.818515 -4.982039,0.939598 -6.699478,0.47422 -7.142858,-1.657548 -12.094146,-8.128479 -8.61729,-12.622961 2.091096,-0.09348 7.003731,2.230522 8.327691,3.107381 1.266743,-1.206962 -0.826827,-4.024843 -1.267819,-5.721827 0,-2.118204 4.452777,-2.708574 6.281163,-3.506723 1.204467,-0.524105 2.376926,-1.061433 2.606426,-1.191789 0.498671,-0.283437 1.46204,-1.186392 1.853458,-1.740883 0.59716,-0.846494 0.988022,-2.417781 0.74653,-2.982586 -0.303077,-0.709831 -2.33859,-1.153461 -7.272247,-1.578651 -1.862059,-0.160567 -3.137138,-1.62239 -4.118796,-3.300813 -1.719757,-3.855433 3.380938,-9.439017 5.560374,-11.381257 -3.466478,-1.834408 -8.921258,3.299771 -10.985601,5.17897 -0.661278,0.634465 -0.459776,0.623495 -2.464839,0.112311 -0.133774,-0.03422 -0.269797,-0.06184 -0.411879,-0.09359 -0.05074,-0.01115 -0.103716,-0.02671 -0.154455,-0.03745 -0.09226,-0.02013 -0.188605,-0.03761 -0.283166,-0.05617 -0.06689,-0.01343 -0.136744,-0.0247 -0.20594,-0.03745 -0.07842,-0.01343 -0.15279,-0.03003 -0.23168,-0.04368 -0.08303,-0.01343 -0.16749,-0.03029 -0.250989,-0.04366 -0.05998,-0.009 -0.120236,-0.01534 -0.1802,-0.02496 -0.530962,-0.08118 -1.082442,-0.149578 -1.641083,-0.199672 -0.610998,-0.05457 -1.222988,-0.09223 -1.814842,-0.10608 -0.177603,-0.0044 -0.355196,0 -0.527721,0 -0.186829,-3.8e-4 -0.368503,-0.0046 -0.547028,0 -0.03459,8.72e-4 -0.06837,0.0039 -0.102977,0.0062 -0.149923,0.0044 -0.300362,0.01195 -0.444057,0.01872 -0.02307,0.0011 -0.03948,0.0039 -0.05792,0.0062 -0.15915,0.009 -0.30862,0.01725 -0.456929,0.03122 -0.02307,0.0012 -0.02705,0.0039 -0.03862,0.0062 -0.15223,0.01343 -0.292332,0.03112 -0.431185,0.04993 h -0.0065 c -0.06228,0.009 -0.126657,0.01485 -0.186634,0.02496 -0.660821,-0.0023 -1.265543,0.180647 -1.782665,0.411823 C 16.966614,14.873921 16.543259,8.57452 15.194634,5.7289419 Z m 48.672574,26.275475 c 0.576747,0.626629 1.166143,1.248552 1.699004,1.86568 -0.534577,-0.635653 -1.095118,-1.262657 -1.699004,-1.86568 z"
     id="path12"
     inkscape:connector-curvature="0" />
  <path
     style="fill:#8effa6;stroke-width:1.62224996"
     d="M 63.995972,-0.6604285 63.442508,9.813e-4 c -0.09457,0.1138292 -0.186565,0.2294675 -0.283175,0.349424 -2.134459,2.7449898 -2.688837,5.8475726 -3.964342,9.1786347 -0.486215,1.27801 -1.000425,3.207253 -1.287122,4.810828 -0.287393,1.607979 -0.312601,3.904099 -0.04505,5.310004 0.707181,3.724274 1.667692,7.23241 4.041566,10.201947 0.667868,0.705065 1.297023,1.429276 1.962864,2.152704 0.576746,0.626629 1.166142,1.248552 1.699003,1.86568 1.386571,1.605838 2.582241,3.146013 3.192066,4.423961 1.532687,3.214103 2.181677,6.072152 2.181677,9.627895 0,1.071801 -0.05988,2.176029 -0.154438,2.832836 -0.01155,0.05157 -0.03342,0.09826 -0.04505,0.149737 v 0.0065 c -0.876126,14.003311 -10.597567,25.6664 -23.81821,29.832011 19.488807,-5.230031 33.812714,-22.506618 33.812714,-43.06671 0,-8.899262 -2.702544,-17.174015 -7.323731,-24.141491 C 69.863485,8.7999 66.450369,5.2789391 64.13112,-0.0052588 Z"
     id="path14"
     inkscape:connector-curvature="0" />
  <path
     style="opacity:0.2;fill:#ffffff;stroke-width:1.62224996"
     d="m 76.49394,5.7352868 c -0.02306,0 -0.04316,0.018886 -0.0708,0.043679 -0.930039,1.0901617 -2.371604,6.6116482 -2.870284,7.9369272 -0.049,-0.0658 -0.09343,-0.11716 -0.141589,-0.180952 0.163104,0.245929 0.305066,0.50585 0.463364,0.755007 0.623438,-1.963308 1.735802,-5.960989 2.548505,-6.9136137 0.02764,-0.024793 0.04773,-0.043679 0.0708,-0.043679 0.04959,0 0.187148,0.300537 0.302475,0.6676507 0.73943,1.665315 1.65439,4.622589 2.709395,6.152369 0.0234,0.0067 0.01932,0.01195 0.01932,0.01872 7.039357,10.80481 14.132913,18.780765 14.367516,33.928498 0.0054,-0.280135 0.02253,-0.557879 0.02253,-0.839247 0,-15.654219 -7.231605,-23.699036 -14.390042,-34.686624 0,-0.0067 0.0041,-0.01195 -0.01932,-0.01872 C 78.450801,11.025522 77.535841,8.068249 76.796412,6.4029327 76.681078,6.0358199 76.543527,5.7352829 76.493938,5.7352829 Z"
     id="path16"
     inkscape:connector-curvature="0" />
  <path
     style="opacity:0.2;fill:#ffffff;stroke-width:1.62224996"
     d="M 15.194683,5.729048 C 12.04028,7.3318381 9.8814354,16.484825 9.3447069,19.169412 c -0.2052808,1.067551 -0.4429048,3.141201 -0.4440577,3.87487 -2.106e-4,0.105595 -0.028025,0.148619 -0.032177,0.22463 -4.5575712,6.93487 -7.2143276,15.159077 -7.2143276,23.991737 0,0.268635 0.023798,0.531279 0.02896,0.798684 0.1560265,-8.527494 2.7664247,-16.469121 7.1853669,-23.193052 0.00415,-0.07601 0.031969,-0.119027 0.032177,-0.224629 0.00116,-0.733669 0.2387777,-2.80732 0.4440584,-3.87487 C 9.8814352,18.082196 12.04028,8.929209 15.194683,7.3264175 c 1.348625,2.8455795 1.771978,9.1451095 3.507411,11.9865095 0.517124,-0.231178 1.121847,-0.414058 1.782668,-0.411822 0.05998,-0.01008 0.124359,-0.01601 0.186632,-0.02497 h 0.0065 c 0.138852,-0.01881 0.278956,-0.03651 0.431186,-0.04992 0.01155,-0.0025 0.01548,-0.0051 0.03862,-0.0062 0.148309,-0.0139 0.29778,-0.02225 0.45693,-0.0312 0.01845,-0.0025 0.03487,-0.0051 0.05792,-0.0062 0.143696,-0.0067 0.294134,-0.01421 0.444057,-0.01872 0.0346,-0.0025 0.06838,-0.0054 0.102964,-0.0062 0.178527,-0.0046 0.360201,-3.81e-4 0.54703,0 0.172525,0 0.350117,-0.0044 0.527719,0 0.591854,0.0139 1.203846,0.05152 1.814845,0.106079 0.558641,0.05009 1.11012,0.11849 1.641082,0.199672 0.05997,0.0095 0.120222,0.01601 0.180199,0.02497 0.0835,0.01343 0.167953,0.03026 0.250986,0.04366 0.07888,0.01358 0.153269,0.03026 0.231683,0.04368 0.0692,0.01275 0.139051,0.02403 0.20594,0.03745 0.09457,0.01856 0.190907,0.03604 0.283167,0.05616 0.05074,0.01074 0.103715,0.02625 0.154455,0.03745 0.142082,0.03175 0.2781,0.05938 0.411879,0.09359 2.005063,0.511185 1.803564,0.522149 2.464843,-0.112311 1.828449,-1.664463 6.31358,-5.87329 9.724219,-5.540874 0.465358,-0.483383 0.908063,-0.9206 1.261379,-1.235464 -3.466476,-1.834409 -8.921256,3.29977 -10.985598,5.17897 -0.661279,0.634465 -0.45978,0.623498 -2.464843,0.112311 -0.133774,-0.03421 -0.269797,-0.06184 -0.411879,-0.09359 -0.05074,-0.01114 -0.103715,-0.02671 -0.154455,-0.03745 -0.09226,-0.02013 -0.188606,-0.0376 -0.283167,-0.05617 -0.06689,-0.01343 -0.136744,-0.0247 -0.20594,-0.03745 -0.07842,-0.01343 -0.15279,-0.03003 -0.231683,-0.04367 -0.08303,-0.01343 -0.167489,-0.03029 -0.250986,-0.04368 -0.05997,-0.009 -0.120236,-0.01534 -0.180199,-0.02497 -0.530962,-0.08118 -1.082441,-0.149578 -1.641082,-0.199671 -0.610999,-0.05457 -1.222991,-0.09223 -1.814845,-0.106079 -0.177602,-0.0044 -0.355194,0 -0.527719,0 -0.186829,-3.82e-4 -0.368503,-0.0046 -0.54703,0 -0.0346,8.72e-4 -0.06838,0.0039 -0.102964,0.0062 -0.149923,0.0044 -0.300362,0.01195 -0.444057,0.01872 -0.02307,0.0011 -0.03947,0.0039 -0.05792,0.0062 -0.15915,0.009 -0.308621,0.01723 -0.45693,0.0312 -0.02307,0.0012 -0.02705,0.0039 -0.03862,0.0062 -0.15223,0.01343 -0.292332,0.03112 -0.431186,0.04992 h -0.0065 c -0.06228,0.009 -0.126656,0.01485 -0.186632,0.02497 -0.660821,-0.0023 -1.265544,0.180645 -1.782668,0.411821 C 16.966661,14.874151 16.543308,8.574621 15.194683,5.7290411 Z m 20.883579,17.218518 c -0.13658,0.888994 -0.08212,1.752626 0.270296,2.542687 0.981658,1.678423 2.256737,3.140246 4.118796,3.300815 4.648834,0.400643 6.704424,0.819426 7.182149,1.460094 0.161951,-0.603864 0.217473,-1.180913 0.09009,-1.478814 -0.303072,-0.709831 -2.338583,-1.153459 -7.272241,-1.57865 -1.862058,-0.160567 -3.137138,-1.62239 -4.118795,-3.300814 -0.135658,-0.304106 -0.214735,-0.622344 -0.270297,-0.945318 z m 27.788998,9.05696 c 0.576746,0.626628 1.166142,1.248548 1.699002,1.865677 -0.534577,-0.635653 -1.095118,-1.262655 -1.699002,-1.865677 z m 0,1.597369 c 0.603884,0.603023 1.164425,1.230023 1.699002,1.865677 -0.53286,-0.61713 -1.122256,-1.239049 -1.699002,-1.865677 z m -27.319196,5.350562 c -0.173097,0.252781 -0.29604,0.524803 -0.29604,0.839243 0.26948,1.036988 1.149346,2.489967 1.509152,3.740715 0.538428,-1.149198 -0.600219,-3.069279 -1.213112,-4.579958 z m -8.417791,5.918377 c -0.629081,4.117528 3.765941,8.786067 9.679169,10.158272 1.717439,0.465376 3.914811,0.344294 6.699479,-0.47422 2.789512,-0.819822 4.103252,-1.211356 5.650471,-1.210505 1.519306,8.94e-4 2.207341,0.125487 3.475234,0.617731 1.356156,0.526451 2.897875,1.723868 3.584638,2.711161 0.477814,-0.319533 0.599739,-0.552548 0.250991,-1.251065 -0.514586,-1.030613 -2.321852,-2.469828 -3.835629,-3.057465 -1.267893,-0.492236 -1.955928,-0.616837 -3.475234,-0.617732 -1.547219,-8.5e-4 -2.860959,0.390685 -5.650471,1.210506 -2.784668,0.818514 -4.98204,0.939597 -6.699479,0.474218 -5.15666,-1.196636 -9.153522,-4.901674 -9.679169,-8.560901 z m 42.610226,6.033813 C 68.376244,61.363954 60.716157,69.567646 49.97276,69.623819 c -6.253265,0.02279 -14.461884,-2.415124 -16.764783,-8.071082 -0.17282,-0.02253 -0.324466,-0.02683 -0.501978,-0.05303 1.238848,6.844527 10.432467,9.746411 17.266761,9.721492 10.320964,-0.05395 17.781078,-7.633542 20.449174,-17.502425 0.139216,-0.928465 0.259218,-1.862672 0.318565,-2.814116 z"
     id="path18"
     inkscape:connector-curvature="0" />
  <path
     style="opacity:0.2;fill:#ffffff;stroke-width:1.62224996"
     d="M 63.995972,-0.6604285 63.442508,9.813e-4 C 63.347938,0.1148105 63.255951,0.2304488 63.15934,0.3504053 61.024882,3.0953951 60.470505,6.1979779 59.195,9.52904 c -0.486216,1.27801 -1.000426,3.207253 -1.287123,4.810828 -0.193488,1.082573 -0.256245,2.462934 -0.202722,3.687676 0.03087,-0.737643 0.0914,-1.467436 0.202722,-2.090308 0.286697,-1.603574 0.800907,-3.532817 1.287123,-4.810827 1.275505,-3.3310616 1.829882,-6.4336451 3.96434,-9.1786348 0.09661,-0.1199672 0.1886,-0.2355934 0.283168,-0.349424 l 0.553464,-0.6614098 0.135145,0.6551725 c 2.319248,5.2841981 5.732365,8.8051571 9.280162,13.5402001 4.519277,6.813825 7.185013,14.882324 7.301207,23.558078 0.0078,-0.337708 0.02253,-0.674419 0.02253,-1.013955 0,-8.899265 -2.702547,-17.174015 -7.323731,-24.141492 -3.547803,-4.735043 -6.96092,-8.2560022 -9.280168,-13.5402014 z"
     id="path20"
     inkscape:connector-curvature="0" />
</svg>
